# xmcd
#
# Track frame offsets:
#	150
#	30160
#	47847
#	59884
#	73303
#	84695
#	102252
#	120242
#	132555
#	144602
#	158218
#	171407
#	182282
#	194197
#	205120
#	217990
#	233835
#	244652
#	257449
#	269410
#	300309
#	311950
#
# Disc length: 4358 seconds
#
# Revision: 1
# Processed by: cddbd v1.5.2PL0 Copyright (c) Steve Scherf et al.
# Submitted via: audiograbber 1.83.01
#
DISCID=47110416
DTITLE=Kraus, Peter - Schlagerstars Electrola Stars
DYEAR=2006
DGENRE=Schlager
TTITLE0=Medley
TTITLE1=Ein Kerl wie ich
TTITLE2=An einem Regentag
TTITLE3=Warum hast Du so traurige Augen
TTITLE4=In einer spanischen Nacht
TTITLE5=Wie sieht ein Schmetterling aus?
TTITLE6=Schlaf noch eine Nacht darüber
TTITLE7=Hello Sally
TTITLE8=Schlafen, essen und Dich küssen
TTITLE9=Es kommt nicht auf das Alter an
TTITLE10=In ein Land voll Sonnenschein
TTITLE11=Viva Maria
TTITLE12=Hokuspokus Fidibus
TTITLE13=Wer wird denn weinen
TTITLE14=Sing den Song
TTITLE15=Meine drei heimlichen Wünsche
TTITLE16=Darum wird die Welt nicht untergehn'
TTITLE17=Da fahr' ich lieber einen LKW
TTITLE18=Der Twen von damals
TTITLE19=Rock'N'Roll Medley
TTITLE20=Sag' mir was Du denkst
TTITLE21=Das Münchner Image (Medley)
EXTD=
EXTT0=
EXTT1=
EXTT2=
EXTT3=
EXTT4=
EXTT5=
EXTT6=
EXTT7=
EXTT8=
EXTT9=
EXTT10=
EXTT11=
EXTT12=
EXTT13=
EXTT14=
EXTT15=
EXTT16=
EXTT17=
EXTT18=
EXTT19=
EXTT20=
EXTT21=
PLAYORDER=
